<svg xmlns="http://www.w3.org/2000/svg" xmlns:xlink="http://www.w3.org/1999/xlink" version="1.1" id="Calque_1" x="0px" y="0px" enable-background="new 0 0 841.89 595.28" xml:space="preserve" viewBox="200.31 235.56 441.27 140.19">
<g id="XMLID_1_">
	<g>
		<polygon id="XMLID_41_" fill="#0C8BFD" points="200.311,270.609 261.014,235.562 321.718,270.609 321.718,340.704     261.014,375.751 200.311,340.704   "/>
	</g>
</g>
<g id="XMLID_2_">
	<g id="XMLID_26_">
		<path id="XMLID_32_" fill="#FFFFFF" d="M270.872,321.792c0-3.623,0-7.062,0-10.703c1.419,0,2.857-0.054,4.289,0.009    c8.302,0.364,15.392-5.208,16.89-13.306c1.792-9.682-5.757-18.868-15.611-18.892c-15.442-0.039-30.883-0.01-46.325-0.009    c-0.674,0-1.347,0-2.133,0c0-3.602,0-7.081,0-10.688c0.385-0.026,0.804-0.078,1.223-0.078c15.685-0.004,31.371-0.045,47.056,0.007    c16.431,0.055,28.889,14.655,26.442,30.893c-1.961,13.014-12.938,22.553-26.211,22.764    C274.653,321.817,272.814,321.792,270.872,321.792z"/>
	</g>
	<g id="XMLID_25_">
		<path id="XMLID_31_" fill="#FFFFFF" d="M260.081,300.244c0,14.449,0,28.65,0,42.951c-3.605,0-7.089,0-10.775,0    c0-14.225,0-28.468,0-42.829c-7.194,0-14.187,0-21.308,0c0-3.584,0-7.052,0-10.611c17.773,0,35.53,0,53.397,0    c0,3.462,0,6.897,0,10.489C274.383,300.244,267.348,300.244,260.081,300.244z"/>
	</g>
	<g id="XMLID_24_">
		<path id="XMLID_5_" fill="#FFFFFF" d="M227.973,311.125c3.593,0,7.03,0,10.532,0c0,10.725,0,21.36,0,32.083    c-3.558,0-6.992,0-10.532,0C227.973,332.56,227.973,321.926,227.973,311.125z"/>
	</g>
</g>
<g id="XMLID_3_">
	<path id="XMLID_6_" fill="#1C1C1B" d="M354.372,313.128h-11.934v12.417h-7.957v-42.194c6.631,0,13.262-0.061,19.891-0.061   C374.986,283.29,375.047,313.128,354.372,313.128z M342.437,305.834h11.934c10.187,0,10.127-14.949,0-14.949h-11.934V305.834z"/>
	<path id="XMLID_9_" fill="#1C1C1B" d="M381.975,283.411v42.134h-7.294v-42.134H381.975z"/>
	<path id="XMLID_11_" fill="#1C1C1B" d="M411.994,295.828h7.051v29.716h-6.931l-0.361-4.34c-1.688,3.497-6.33,5.184-9.645,5.244   c-8.8,0.061-15.31-5.364-15.31-15.792c0-10.247,6.811-15.612,15.49-15.552c3.979,0,7.776,1.869,9.464,4.822L411.994,295.828z    M394.151,310.657c0,5.666,3.918,9.041,8.8,9.041c11.573,0,11.573-18.023,0-18.023   C398.069,301.675,394.151,304.989,394.151,310.657z"/>
	<path id="XMLID_14_" fill="#1C1C1B" d="M447.13,325.545v-15.551c0-4.522-2.471-7.958-7.172-7.958c-4.522,0-7.595,3.798-7.595,8.319   v15.19h-7.294v-29.777h6.57l0.482,4.038c3.014-2.954,6.028-4.46,9.765-4.46c6.991,0,12.598,5.244,12.598,14.587v15.611H447.13z"/>
	<path id="XMLID_16_" fill="#1C1C1B" d="M474.253,286.304h-15.25v-2.894h33.756v2.894h-15.25v39.24h-3.255V286.304z"/>
	<path id="XMLID_18_" fill="#1C1C1B" d="M488.536,310.657c0-8.921,6.751-15.371,15.129-15.371s15.853,5.124,14.707,16.756H491.55   c0.602,6.993,5.966,11.031,12.115,11.031c3.918,0,8.5-1.567,10.73-4.521l2.11,1.687c-2.894,3.798-8.078,5.727-12.84,5.727   C495.287,325.966,488.536,320.12,488.536,310.657z M515.721,309.451c-0.061-7.354-4.882-11.453-12.056-11.453   c-6.148,0-11.452,4.16-12.115,11.453H515.721z"/>
	<path id="XMLID_21_" fill="#1C1C1B" d="M554.658,295.767c0,9.945,0,19.832,0,29.777h-2.954v-6.329   c-2.893,4.641-7.353,6.811-12.176,6.811c-8.318,0-15.129-6.27-15.129-15.37c0-9.103,6.811-15.25,15.129-15.25   c4.823,0,9.704,2.23,12.176,6.871v-6.509H554.658z M527.353,310.657c0,7.474,5.425,12.477,12.175,12.477   c16.576,0,16.576-24.895,0-24.895C532.778,298.239,527.353,303.181,527.353,310.657z"/>
	<path id="XMLID_27_" fill="#1C1C1B" d="M606.794,325.545v-17.841c0-5.727-3.858-9.766-9.524-9.766s-9.584,4.22-9.584,9.947v17.661   h-2.954v-17.661c0-5.727-3.918-9.886-9.584-9.886c-5.666,0-9.524,4.16-9.524,9.886v17.661h-2.954v-29.777h2.773l0.061,4.942   c2.049-3.918,5.847-5.545,9.704-5.545c4.521,0,9.283,2.049,11.031,7.353c1.808-4.882,6.449-7.353,11.03-7.353   c7.294,0,12.477,5.123,12.477,12.538v17.841H606.794z"/>
	<path id="XMLID_29_" fill="#1C1C1B" d="M638.496,301.192c-3.013-2.652-5.966-3.134-9.283-3.134   c-4.641-0.061-9.102,1.687-8.981,5.485c0.12,3.978,5.304,4.762,9.041,5.425c5.305,0.904,12.597,1.808,12.297,8.741   c-0.181,6.57-6.992,8.318-12.236,8.318c-5.244,0-10.428-1.989-13.02-5.968l2.171-1.928c2.471,3.556,6.931,5.062,10.909,5.062   c3.618,0,9.102-0.963,9.284-5.666c0.12-4.279-4.823-5.123-9.706-5.907c-5.786-0.963-11.513-2.049-11.573-8.017   c-0.059-5.847,5.787-8.378,11.814-8.317c4.34,0,8.137,1.205,11.091,3.978L638.496,301.192z"/>
</g>
</svg>